<?xml version="1.0" standalone="no"?>
<!DOCTYPE svg PUBLIC "-//W3C//DTD SVG 20010904//EN"
 "http://www.w3.org/TR/2001/REC-SVG-20010904/DTD/svg10.dtd">
<svg version="1.0" xmlns="http://www.w3.org/2000/svg"
 width="460.000000pt" height="460.000000pt" viewBox="0 0 460.000000 460.000000"
 preserveAspectRatio="xMidYMid meet">

<g transform="translate(0.000000,460.000000) scale(0.100000,-0.100000)"
fill="#000000" stroke="none">
<path d="M370 2300 l0 -2300 1930 0 1930 0 0 2300 0 2300 -1930 0 -1930 0 0
-2300z m2086 1965 c16 -8 36 -15 45 -15 20 0 39 -20 39 -42 0 -12 -7 -18 -21
-18 -33 0 -19 -31 26 -54 41 -20 66 -46 59 -57 -2 -4 -28 -10 -59 -14 -30 -3
-57 -11 -60 -16 -4 -5 -14 -9 -25 -9 -19 0 -30 -19 -30 -51 0 -10 -7 -19 -15
-19 -17 0 -20 -25 -5 -35 6 -3 10 -27 10 -52 0 -37 5 -50 30 -73 17 -15 30
-31 30 -34 0 -13 -41 -5 -46 9 -7 17 -46 20 -74 5 -13 -7 -19 -6 -24 5 -4 11
-20 15 -55 15 -58 0 -74 15 -34 31 59 24 73 33 73 46 0 8 14 28 30 45 17 16
30 31 30 33 0 2 -16 7 -36 11 -24 4 -34 11 -30 20 3 8 0 14 -7 15 -7 0 -2 4
11 9 25 10 30 47 8 56 -8 3 -12 12 -9 20 3 8 -1 14 -11 14 -9 0 -15 5 -13 12
1 6 -11 16 -28 21 -62 20 -61 19 -32 30 15 6 27 14 27 19 0 4 6 8 14 8 8 0 16
7 20 15 4 10 -1 15 -14 15 -26 0 -25 15 2 34 29 21 136 21 174 1z m-230 -177
c45 -32 58 -53 27 -44 -10 3 -39 8 -65 11 -38 6 -47 11 -51 31 -8 43 30 44 89
2z m-18 -59 c-12 -7 -24 -7 -35 0 -15 9 -12 10 17 10 29 0 32 -1 18 -10z m417
-49 c39 -15 23 -26 -32 -24 -49 2 -59 12 -26 25 25 10 28 10 58 -1z m-565 -29
c0 -17 66 -32 109 -25 26 4 46 2 55 -5 19 -16 11 -59 -15 -88 -30 -31 -21 -64
21 -85 21 -11 28 -18 17 -18 -10 0 -15 -4 -12 -10 3 -5 -2 -10 -12 -11 -12 0
-13 -2 -5 -6 16 -6 64 36 56 48 -3 5 6 9 19 9 14 0 27 -7 31 -15 3 -10 19 -15
44 -15 37 0 38 -1 34 -33 -2 -22 2 -38 12 -46 9 -8 16 -17 16 -22 0 -8 -62 -5
-110 6 -81 17 -144 26 -156 21 -22 -8 -16 12 7 24 11 7 18 14 16 17 -9 8 -81
-19 -95 -36 -18 -23 -10 -82 14 -108 30 -33 39 -28 14 7 -24 34 -23 36 16 15
29 -15 49 -11 24 5 -13 8 -13 12 3 27 26 26 146 23 207 -5 49 -22 120 -90 81
-77 -25 8 -64 -12 -55 -27 7 -12 -74 -6 -108 7 -11 4 -18 3 -18 -4 0 -6 7 -11
16 -11 8 0 13 -4 10 -9 -9 -14 5 -41 21 -41 10 0 12 -6 8 -20 -4 -11 -2 -20 4
-20 6 0 11 -7 11 -15 0 -23 -156 -42 -176 -22 -5 5 -8 32 -7 60 1 30 -4 55
-10 59 -8 5 -6 8 6 8 10 0 15 5 12 10 -3 6 -17 10 -31 10 -13 0 -24 4 -24 9 0
5 -10 11 -22 13 -30 4 -40 51 -33 149 5 60 3 84 -11 112 -10 21 -24 37 -31 37
-7 0 -16 12 -19 26 -5 21 -2 31 15 43 12 9 23 27 24 39 1 21 27 33 27 13z
m127 -7 c-3 -3 -12 -4 -19 -1 -8 3 -5 6 6 6 11 1 17 -2 13 -5z m438 -14 c-3
-5 1 -11 7 -13 7 -3 0 -6 -17 -6 -16 0 -37 4 -45 9 -12 7 -10 11 10 18 27 10
53 5 45 -8z m-795 -165 c0 -8 -4 -15 -10 -15 -5 0 -10 7 -10 15 0 8 5 15 10
15 6 0 10 -7 10 -15z m-4 -55 c0 -11 -4 -20 -8 -20 -10 0 -11 24 -1 33 9 9 9
10 9 -13z m760 1 c-1 -10 -9 -25 -18 -35 -22 -21 -23 -27 -3 -20 18 7 19 -9 2
-58 -12 -34 -14 -35 -25 -17 -7 10 -12 30 -12 44 0 16 -6 25 -16 25 -24 0 -12
35 14 38 13 2 22 10 22 21 0 9 8 17 19 18 12 1 18 -5 17 -16z m-816 -25 c0
-16 -18 -31 -27 -22 -8 8 5 36 17 36 5 0 10 -6 10 -14z m446 -663 c-4 -4 -11
-1 -16 7 -16 25 -11 35 7 17 9 -9 13 -20 9 -24z m-183 -66 c21 -8 23 -27 2
-27 -8 0 -19 9 -25 19 -11 22 -14 42 -2 25 4 -6 15 -13 25 -17z m20 -67 c9 -8
-12 -50 -25 -50 -5 0 -8 6 -8 14 0 7 -7 19 -15 26 -8 7 -15 16 -15 21 0 10 50
1 63 -11z m-2 -73 c-1 -12 -15 -9 -19 4 -3 6 1 10 8 8 6 -3 11 -8 11 -12z m49
-116 c0 -5 -8 -17 -17 -27 -16 -16 -16 -16 6 -9 15 5 21 4 17 -3 -3 -6 4 -18
16 -28 20 -14 20 -15 3 -9 -11 4 -28 10 -37 12 -10 3 -18 8 -19 12 0 3 -2 15
-4 26 -2 11 1 23 8 27 16 10 27 10 27 -1z m180 -56 c-7 -8 -17 -15 -23 -15 -6
0 -2 7 9 15 25 19 30 19 14 0z m-73 -462 c8 -20 -20 -45 -40 -37 -21 8 -33 44
-17 54 17 10 51 0 57 -17z m1428 -763 c-3 -6 0 -13 8 -16 15 -5 18 -34 18
-164 0 -130 -1 -134 -36 -174 l-34 -38 -43 16 c-31 13 -52 31 -78 68 -19 28
-45 62 -57 75 -31 32 -43 57 -43 87 0 14 -4 28 -10 31 -20 13 32 65 80 80 3 1
12 5 20 8 62 27 187 46 175 27z m-2546 -230 c41 -6 79 -14 84 -19 6 -6 9 -43
8 -83 -1 -67 -4 -75 -31 -100 -17 -15 -30 -37 -30 -48 0 -11 -4 -20 -9 -20 -5
0 -12 -11 -15 -25 -4 -14 -13 -25 -21 -25 -8 0 -15 -12 -17 -27 -2 -16 -8 -27
-15 -26 -7 2 -11 -9 -11 -27 1 -17 4 -30 9 -30 4 0 5 -18 2 -40 -4 -31 -2 -41
11 -46 10 -4 22 -18 28 -33 9 -25 10 -25 24 -7 12 17 14 18 14 3 0 -12 8 -17
29 -17 17 0 32 -4 36 -9 3 -5 20 -8 37 -6 17 3 38 0 45 -6 9 -9 13 -8 13 0 0
7 5 9 10 6 6 -3 10 -20 10 -37 0 -23 -4 -29 -16 -24 -9 3 -21 3 -27 -1 -7 -4
-37 -8 -67 -9 -48 -2 -102 -8 -121 -12 -4 -1 -9 -11 -12 -21 -10 -39 83 -39
147 0 17 10 44 19 60 19 16 0 34 7 40 15 16 22 78 28 111 11 15 -8 34 -12 41
-9 8 3 14 -1 14 -10 0 -21 19 -32 32 -19 16 16 38 3 38 -23 0 -20 6 -24 53
-30 28 -4 55 -11 58 -16 6 -10 117 -14 164 -6 17 3 73 8 126 12 84 7 101 5
128 -11 39 -23 39 -38 1 -54 -16 -7 -30 -16 -30 -21 0 -4 -21 -11 -47 -14 -27
-3 -56 -11 -67 -16 -13 -8 -25 -7 -42 2 -18 9 -27 9 -37 0 -18 -14 -205 -13
-214 2 -3 6 2 16 11 23 16 11 14 14 -21 23 -21 6 -48 11 -61 11 -12 0 -25 7
-29 15 -5 14 -8 14 -29 0 -21 -13 -26 -13 -52 2 -19 11 -35 14 -48 8 -10 -5
-42 -7 -70 -6 -28 2 -60 -2 -70 -8 -11 -5 -46 -17 -78 -26 -33 -9 -75 -27 -95
-41 -30 -20 -48 -24 -107 -24 -64 0 -73 2 -87 23 -25 39 -40 107 -42 202 -1
50 -7 138 -13 196 -14 136 -6 450 11 461 17 11 146 9 236 -2z m681 -220 c0 -5
-11 -10 -24 -10 -14 0 -27 -4 -31 -9 -3 -5 -45 -9 -93 -9 -48 1 -73 3 -57 5
17 2 39 8 50 13 44 20 155 27 155 10z m48 -13 c10 4 13 2 8 -5 -4 -7 -16 -12
-27 -12 -11 0 -17 -5 -14 -10 4 -6 10 -8 14 -6 4 3 8 -4 8 -15 1 -10 -1 -19
-5 -19 -4 0 -8 -14 -9 -32 -1 -17 -6 -34 -10 -37 -5 -3 -8 -19 -8 -36 0 -24
-5 -31 -23 -33 -13 -2 -31 3 -41 12 -14 13 -22 14 -49 4 -18 -7 -32 -16 -32
-20 0 -4 -13 -8 -30 -8 -33 0 -40 14 -25 53 6 13 3 16 -9 11 -21 -8 -20 -1 3
44 22 43 55 62 106 62 24 0 39 6 47 20 8 12 24 20 41 20 20 0 26 4 21 13 -5 9
-4 9 6 0 7 -6 19 -9 28 -6z m222 -47 c104 -12 199 -34 242 -56 15 -8 28 -11
28 -7 0 5 4 3 8 -4 4 -6 34 -15 67 -18 33 -4 62 -11 63 -16 2 -5 12 -9 22 -9
10 0 32 -8 49 -17 28 -16 33 -16 41 -3 8 13 10 12 10 -4 0 -14 5 -17 25 -12
18 5 23 3 19 -7 -3 -10 5 -14 30 -15 45 -2 56 23 15 37 -16 5 -29 12 -29 13 0
7 175 -13 195 -22 42 -18 430 -36 450 -20 6 4 26 11 45 15 19 4 44 14 55 21
11 7 64 20 119 29 111 17 128 12 124 -37 -3 -41 -17 -49 -90 -53 -35 -1 -66
-3 -70 -4 -15 -2 -8 -22 10 -27 52 -17 91 -41 89 -54 -1 -9 7 -16 21 -18 12
-2 22 -8 22 -13 0 -5 6 -9 13 -9 7 0 24 -12 36 -26 19 -21 25 -24 32 -13 6 9
7 4 3 -16 -9 -37 -22 -47 -54 -40 -27 6 -59 12 -76 14 -7 0 -14 10 -17 22 -3
12 -10 18 -17 14 -7 -4 -14 2 -17 14 -6 23 -23 29 -23 7 0 -19 -50 -28 -57
-10 -4 11 -21 13 -72 9 -195 -14 -450 -14 -574 0 -71 8 -134 18 -140 22 -13 8
-44 11 -164 17 -50 2 -96 7 -102 10 -5 4 -36 9 -68 11 -155 13 -275 29 -318
44 -16 6 -52 13 -79 17 -36 4 -45 9 -37 17 14 14 15 57 1 57 -5 0 -10 14 -10
30 0 17 3 30 8 30 12 0 34 54 23 58 -6 2 -7 11 -4 19 6 14 8 14 14 -3 7 -17 8
-17 8 4 1 18 5 22 19 18 9 -3 60 -10 112 -16z m1226 -15 c-3 -8 2 -18 10 -23
13 -7 11 -11 -13 -21 -15 -6 -41 -10 -56 -9 l-29 2 22 18 c12 10 28 18 36 18
8 0 13 3 13 8 -3 15 1 22 12 22 6 0 9 -7 5 -15z m-1756 -15 c0 -5 -4 -10 -10
-10 -5 0 -10 5 -10 10 0 6 5 10 10 10 6 0 10 -4 10 -10z m340 -5 c16 -20 1
-38 -23 -29 -17 6 -22 25 -10 37 10 11 19 8 33 -8z m-25 -155 c0 -10 -10 -15
-27 -15 -21 -1 -28 4 -28 18 0 14 6 18 28 15 16 -2 27 -9 27 -18z m1965 -150
c0 -30 -13 -40 -25 -20 -8 13 4 50 16 50 5 0 9 -13 9 -30z m-1650 -175 c0 -8
-4 -15 -10 -15 -5 0 -10 7 -10 15 0 8 5 15 10 15 6 0 10 -7 10 -15z"/>
<path d="M2300 3576 c0 -2 7 -7 16 -10 8 -3 12 -2 9 4 -6 10 -25 14 -25 6z"/>
<path d="M1911 864 c0 -11 3 -14 6 -6 3 7 2 16 -1 19 -3 4 -6 -2 -5 -13z"/>
<path d="M3520 606 c0 -2 7 -6 15 -10 8 -3 15 -1 15 4 0 6 -7 10 -15 10 -8 0
-15 -2 -15 -4z"/>
</g>
</svg>
